# xmcd CD database file
#
# Track frame offsets:
#	175
#	15437
#	31100
#	46040
#	60175
#	72412
#	87730
#	104142
#	117987
#	129550
#	142370
#	157612
#	171450
#	186470
#	200400
#	214112
#	229145
#	241187
#	255375
#	270325
#
# Disc length: 3771 seconds
#
# Revision: 0
# Processed by: cddbd v1.5.2PL0 Copyright (c) Steve Scherf et al.
# Submitted via: CDex 1.70beta1
#
DISCID=1a0eb914
DTITLE=Fats Waller - Great Original Performances 1927-1940 (Robert Parker)
DYEAR=1900
DGENRE=Jazz
TTITLE0=I'm Crazy 'Bout My Baby
TTITLE1=Red Hot Dan
TTITLE2=The Digah's Stomp
TTITLE3=Geechee
TTITLE4=The Minor Drag
TTITLE5=Harlem Fuss
TTITLE6=I Need Someone Like You
TTITLE7=Won't You Get Off It Please
TTITLE8=Ridin' But Walkin
TTITLE9='Handful Of Keys
TTITLE10=Draggin' My Heart Aroud
TTITLE11=Thats How I Feel Today
TTITLE12=Dallas Vlues
TTITLE13=Sugar
TTITLE14=Royal Garden Blues
TTITLE15=Yellow Dog Blues
TTITLE16=Serenade For A Wealthy Widow
TTITLE17=Your Feets Too Big
TTITLE18=Fats Waller's original E Flat Blues
TTITLE19=Alligator Crawl
EXTD=
EXTT0=
EXTT1=
EXTT2=
EXTT3=
EXTT4=
EXTT5=
EXTT6=
EXTT7=
EXTT8=
EXTT9=
EXTT10=
EXTT11=
EXTT12=
EXTT13=
EXTT14=
EXTT15=
EXTT16=
EXTT17=
EXTT18=
EXTT19=
PLAYORDER=
